# xmcd
#
# Track frame offsets:
#	150
#	56480
#	124070
#	200653
#	259255
#
# Disc length: 4356 seconds
#
# Revision: 1
# Processed by: cddbd v1.5.2PL0 Copyright (c) Steve Scherf et al.
# Submitted via: audiograbber 1.83.01
#
DISCID=47110205
DTITLE=Martin Woznica - MeditationYoga - Atmung und Entspannung 1
DYEAR=1900
DGENRE=Meditation
TTITLE0=Atembewegung (Becken und Schultern)
TTITLE1=Augenbewegung
TTITLE2=Endentspannung (Bild: Blatt fällt vom Baum)
TTITLE3=Die Lunge von innen füllen
TTITLE4=Den Unterbauch vorschieben
EXTD=
EXTT0=
EXTT1=
EXTT2=
EXTT3=
EXTT4=
PLAYORDER=
